:SAMPLES-PER-SECOND 30
:FULLY-SPECIFIED
:DEGREES
265
root  13.3769 37.5151 1.7576 60.6626 86.9741 71.2431
RightUpLeg  -15.021 -3.19147 -0.965009
RightLeg  3.56551 1.12075 -0.505794
RightFoot  -2.60941 -0.488397 6.14677
RightToes  5.82063e-011 0 -3.6325e-017
Spine  5.925 0.287141 -1.10022
Spine1  14.8397 -0.383875 1.42648
HEad  -1.01727 0.512914 -2.78973
LeftShoulder1  0.169094 3.01029 -28.1377
LeftArm  -7.57101 6.58291 -36.6273
LeftForeArm  47.7566 -77.3596 -55.411
LeftHand  0.035185 1.52136 -1.33211
RightShoulder  -0.244098 -4.22843 26.2413
RightArm  -10.9658 -14.6892 39.3276
RightForeArm  100.242 77.5135 119.143
RightHand  -0.087889 -3.64505 -4.73909
LeftUpLeg  19.8891 6.41808 -3.66192
LeftLeg  18.8614 -3.13431 -0.74715
LeftFoot  -24.3186 0.869433 6.34498
LeftToes  2.58842e-009 -1.78069e-010 3.24654e-012
266
root  14.9171 37.35 1.74574 65.9272 89.1378 76.7875
RightUpLeg  -15.2085 -3.45374 0.405706
RightLeg  8.76021 -0.950384 -0.15106
RightFoot  1.47864 -0.156056 1.70532
RightToes  5.82063e-011 0 -3.6325e-017
Spine  6.16837 -0.718807 1.46218
Spine1  14.997 -1.40121 1.80158
HEad  -0.930562 0.850802 -2.75117
LeftShoulder1  0.10917 3.18972 -28.5877
LeftArm  -7.21044 7.49949 -36.198
LeftForeArm  49.1973 -77.563 -56.806
LeftHand  0.0296135 1.24965 -1.02945
RightShoulder  -0.239377 -4.2145 26.1932
RightArm  -10.691 -15.3862 39.0233
RightForeArm  101.296 77.3314 120.513
RightHand  -0.0925479 -3.54917 -4.8514
LeftUpLeg  22.051 3.98781 -2.29073
LeftLeg  20.2963 -3.0251 -0.884316
LeftFoot  -24.7835 0.652971 4.27923
LeftToes  2.58842e-009 -1.78069e-010 3.24654e-012
267
root  16.4309 37.1896 1.85419 -169.23 88.2409 -158.111
RightUpLeg  -15.7269 -3.34134 2.45557
RightLeg  13.3207 -1.54292 -0.367687
RightFoot  8.55015 0.251994 -1.22839
RightToes  5.82063e-011 0 -3.6325e-017
Spine  6.56069 -1.21386 4.55847
Spine1  15.202 -1.66176 2.01305
HEad  -0.65289 0.147437 -2.91461
LeftShoulder1  0.13316 3.12192 -28.7233
LeftArm  -6.39134 7.47575 -36.0222
LeftForeArm  46.6265 -77.2376 -54.7744
LeftHand  0.0215014 1.71443 -0.992694
RightShoulder  -0.305109 -4.40287 26.7313
RightArm  -10.6359 -15.7205 38.0566
RightForeArm  101.172 77.3818 120.183
RightHand  -0.107532 -3.08173 -4.71594
LeftUpLeg  22.6591 2.84258 0.491884
LeftLeg  24.6798 -4.37444 -1.88532
LeftFoot  -24.3207 0.27432 1.19929
LeftToes  2.58842e-009 -1.78069e-010 3.24654e-012
268
root  17.95 36.9757 1.92556 -116.777 86.4009 -105.386
RightUpLeg  -16.7447 -3.90959 5.38788
RightLeg  20.2908 -0.705108 -0.479739
RightFoot  6.07128 0.540394 -3.276
RightToes  5.82063e-011 0 -3.6325e-017
Spine  7.27065 -1.7315 9.14769
Spine1  14.8342 -1.29877 0.929016
HEad  -0.346063 -0.0344301 -2.76325
LeftShoulder1  0.157736 3.05348 -28.9275
LeftArm  -6.09131 8.05136 -36.4747
LeftForeArm  44.1483 -76.7838 -51.8759
LeftHand  0.0361413 1.49808 -1.34355
RightShoulder  -0.29628 -4.37473 26.7432
RightArm  -10.4173 -15.7809 38.0528
RightForeArm  96.5368 77.8011 116.175
RightHand  -0.105244 -3.48979 -5.49294
LeftUpLeg  20.8768 2.83462 4.56636
LeftLeg  33.5359 -6.54999 -4.34915
LeftFoot  -21.3931 -0.111415 -3.15324
LeftToes  2.58842e-009 -1.78069e-010 3.24654e-012
269
root  19.3127 36.83 2.01069 -117.806 84.5981 -106.593
RightUpLeg  -17.135 -5.8149 7.28665
RightLeg  24.8841 0.129598 -0.190846
RightFoot  3.03239 0.67256 -5.14725
RightToes  5.82063e-011 0 -3.6325e-017
Spine  7.81789 -2.2719 11.7207
Spine1  14.6585 -1.4191 1.43234
HEad  0.0560742 0.255365 -3.29494
LeftShoulder1  0.138406 3.11261 -29.3346
LeftArm  -6.14245 7.97993 -36.8974
LeftForeArm  41.2568 -76.1714 -48.4963
LeftHand  0.0429073 1.33721 -1.46804
RightShoulder  -0.249924 -4.24652 26.2241
RightArm  -9.99892 -15.1031 37.9118
RightForeArm  92.0431 78.2375 111.479
RightHand  -0.100491 -3.63178 -5.59093
LeftUpLeg  15.7448 2.22327 7.63603
LeftLeg  45.1086 -7.39023 -7.44302
LeftFoot  -12.6249 -0.0295603 -9.81589
LeftToes  2.58842e-009 -1.78069e-010 3.24654e-012
270
root  20.5216 36.7101 2.33029 -124.749 83.2433 -114.354
RightUpLeg  -17.8843 -6.23425 8.60484
RightLeg  28.5663 -0.9346 -0.791123
RightFoot  -0.234003 0.570879 -5.86962
RightToes  5.82063e-011 0 -3.6325e-017
Spine  8.41945 -2.23134 11.5959
Spine1  13.8267 -1.558 3.45785
HEad  -0.62653 -0.431373 -2.49995
LeftShoulder1  0.244977 2.79998 -28.6409
LeftArm  -5.50117 6.85479 -37.2872
LeftForeArm  38.4168 -75.5286 -45.6127
LeftHand  0.0334249 1.20688 -1.13275
RightShoulder  -0.288636 -4.35395 26.6725
RightArm  -10.034 -14.2252 37.3521
RightForeArm  89.937 78.3819 109.465
RightHand  -0.0968214 -3.54187 -5.11294
LeftUpLeg  7.57994 0.813451 9.45017
LeftLeg  57.0121 -5.53096 -8.52405
LeftFoot  2.82414 1.23637 -10.6436
LeftToes  2.58842e-009 -1.78069e-010 3.24654e-012
271
root  21.7303 36.7033 2.43323 -130.923 81.693 -119.953
RightUpLeg  -16.2448 -7.89795 9.45529
RightLeg  30.674 -1.05982 -0.936142
RightFoot  -3.21502 0.41885 -6.18285
RightToes  5.82063e-011 0 -3.6325e-017
Spine  8.97963 -2.69658 13.1215
Spine1  14.4983 -1.65325 3.76958
HEad  -1.49317 -0.909016 -2.05391
LeftShoulder1  0.284149 2.6835 -28.5157
LeftArm  -4.94751 4.13801 -37.7724
LeftForeArm  33.8496 -74.3376 -41.1935
LeftHand  0.0378044 1.52936 -1.41428
RightShoulder  -0.252849 -4.25482 26.2799
RightArm  -10.3981 -12.9226 37.6487
RightForeArm  85.2407 78.6291 105.104
RightHand  -0.0833728 -3.96774 -5.38218
LeftUpLeg  1.52675 -1.04739 10.3677
LeftLeg  65.1724 -3.3656 -7.29802
LeftFoot  14.0024 1.77792 -8.1656
LeftToes  2.58842e-009 -1.78069e-010 3.24654e-012
272
root  23.0221 36.9507 2.5429 -132.08 81.8608 -120.722
RightUpLeg  -13.4565 -7.90076 9.28338
RightLeg  30.6406 -1.22382 -1.04096
RightFoot  -5.40283 0.281965 -6.12212
RightToes  5.82063e-011 0 -3.6325e-017
Spine  9.0614 -2.44745 13.838
Spine1  14.7254 -0.989576 2.63135
HEad  -1.40019 -1.76188 -1.49418
LeftShoulder1  0.331351 2.54128 -28.2852
LeftArm  -4.38532 1.30099 -38.2575
LeftForeArm  29.2 -72.8167 -36.7276
LeftHand  0.0191635 1.48898 -0.822797
RightShoulder  -0.273759 -4.32501 25.9886
RightArm  -10.1812 -10.5252 37.9899
RightForeArm  74.5478 78.9759 94.4206
RightHand  -0.0972711 -3.54552 -5.08887
LeftUpLeg  -3.3289 -1.37481 10.2525
LeftLeg  70.1075 -2.41331 -6.62811
LeftFoot  8.90549 1.12964 -6.59158
LeftToes  2.58842e-009 -1.78069e-010 3.24654e-012
273
root  24.2584 37.2339 2.6247 -134.291 82.2142 -123.104
RightUpLeg  -11.0724 -7.75469 8.83256
RightLeg  30.0416 -1.33739 -1.09224
RightFoot  -7.09354 0.165654 -5.73858
RightToes  5.82063e-011 0 -3.6325e-017
Spine  8.63292 -2.3883 13.7885
Spine1  14.7111 -0.843503 2.01017
HEad  -0.704083 -1.60791 -1.78236
LeftShoulder1  0.298264 2.63863 -28.3547
LeftArm  -4.20571 -1.38024 -38.4062
LeftForeArm  24.8454 -71.0267 -32.6229
LeftHand  0.0197451 1.64967 -0.910575
RightShoulder  -0.168564 -4.01372 25.1615
RightArm  -9.55492 -7.31553 39.0472
RightForeArm  57.5947 78.7331 78.1235
RightHand  -0.1168 -3.25511 -5.65028
LeftUpLeg  -8.2617 -1.54899 9.56103
LeftLeg  71.4823 -2.22417 -6.56574
LeftFoot  6.75409 0.542705 -3.71294
LeftToes  2.58842e-009 -1.78069e-010 3.24654e-012
274
root  25.4809 37.5213 2.72744 -137.783 82.6835 -126.831
RightUpLeg  -8.42545 -8.01035 8.13338
RightLeg  28.7757 -1.15324 -0.945322
RightFoot  -8.69547 0.0647016 -5.35781
RightToes  5.82063e-011 0 -3.6325e-017
Spine  7.82189 -2.11654 13.1954
Spine1  14.9028 -0.621283 1.68191
HEad  -0.399865 -1.19492 -2.44019
LeftShoulder1  0.388937 2.35498 -27.6899
LeftArm  -3.89534 -4.21091 -39.0316
LeftForeArm  20.2777 -68.8554 -28.7693
LeftHand  0.0219877 1.8434 -1.05489
RightShoulder  -0.143886 -3.93957 24.845
RightArm  -8.86583 -3.35834 39.7722
RightForeArm  39.86 77.4082 60.8981
RightHand  -0.14052 -2.6122 -5.35247
LeftUpLeg  -12.5016 -2.03482 8.50264
LeftLeg  69.7039 -2.27802 -5.99968
LeftFoot  4.94293 0.50383 -3.70799
LeftToes  2.58842e-009 -1.78069e-010 3.24654e-012
275
root  26.7051 37.8171 2.80976 -135.279 83.4417 -124.501
RightUpLeg  -5.41958 -8.23184 7.6583
RightLeg  26.8083 -0.384335 -0.404176
RightFoot  -9.84369 0.00380551 -5.38355
RightToes  5.82063e-011 0 -3.6325e-017
Spine  7.3549 -1.52374 13.7006
Spine1  14.4697 0.255136 0.345252
HEad  0.490029 -1.99342 -2.73101
LeftShoulder1  0.48479 2.04475 -27.0982
LeftArm  -2.83386 -7.73642 -39.5215
LeftForeArm  16.1436 -66.3809 -25.3389
LeftHand  0.00276336 2.4728 -0.671335
RightShoulder  -0.186713 -4.07823 24.807
RightArm  -7.98676 0.410893 39.9678
RightForeArm  24.4789 75.2292 48.6706
RightHand  -0.201766 -2.37651 -7.41466
LeftUpLeg  -15.5157 -1.7605 7.89173
LeftLeg  65.0049 -3.1755 -6.77739
LeftFoot  2.01616 0.270126 -2.41111
LeftToes  2.58842e-009 -1.78069e-010 3.24654e-012
